<svg width="341" height="92" viewBox="0 0 341 92" fill="none" xmlns="http://www.w3.org/2000/svg">
<path d="M276.44 85.8067V79.0422H285.438C285.923 79.0422 286.351 79.0639 286.723 79.1072C287.096 79.1504 287.45 79.2586 287.788 79.4317C288.126 79.5962 288.398 79.8602 288.606 80.2237C288.822 80.5786 288.931 81.0504 288.931 81.6389C288.931 82.1583 288.857 82.5824 288.71 82.9113C288.563 83.2316 288.39 83.474 288.191 83.6384C287.991 83.7942 287.805 83.8981 287.632 83.95C287.459 83.9933 287.325 84.0149 287.23 84.0149V84.0539C287.412 84.0539 287.611 84.0798 287.827 84.1318C288.043 84.1751 288.264 84.2746 288.489 84.4304C288.714 84.5776 288.905 84.8113 289.06 85.1315C289.216 85.4518 289.294 85.8673 289.294 86.3779C289.294 87.0185 289.199 87.5335 289.008 87.923C288.827 88.3038 288.563 88.5895 288.217 88.7799C287.879 88.9703 287.489 89.0958 287.048 89.1564C286.615 89.217 286.079 89.2473 285.438 89.2473H276.44V85.8067ZM279.531 85.1315V86.8713H285.308C285.559 86.8713 285.763 86.8021 285.918 86.6636C286.074 86.5164 286.152 86.2871 286.152 85.9754C286.152 85.7244 286.074 85.521 285.918 85.3652C285.763 85.2094 285.559 85.1315 285.308 85.1315H279.531ZM279.479 81.3273V83.0671H284.997C285.23 83.0671 285.429 82.9892 285.594 82.8334C285.758 82.669 285.841 82.4483 285.841 82.1713C285.841 81.9289 285.763 81.7298 285.607 81.574C285.451 81.4096 285.261 81.3273 285.036 81.3273H279.479Z" fill="#E40604"/>
<path d="M264.097 86.9492H269.835L266.966 81.561L264.097 86.9492ZM272.51 89.2083H261.526V90.9871H258.994V86.9492H260.591L264.915 79.0422H268.978L273.328 86.9492H275.042V90.9871H272.51V89.2083Z" fill="#E40604"/>
<path d="M251.909 86.404H246.365V83.6775H251.909V86.404Z" fill="#E40604"/>
<path d="M235.401 89.2083L231.325 81.561L227.248 89.2083H223.716L229.273 79.0422H233.337L238.933 89.2083H235.401Z" fill="#E40604"/>
<path d="M218.626 87.5075H212.355L211.407 89.2473H207.876L213.472 79.0422H217.549L223.093 89.2473H219.561L218.626 87.5075ZM215.484 81.6389L213.511 85.3133H217.458L215.484 81.6389Z" fill="#E40604"/>
<path d="M203.954 89.2083V81.4961L203.915 81.587L197.735 89.2083H192.58V79.0422H195.579V86.7415L195.631 86.6116L201.759 79.0422H206.953V89.2083H203.954Z" fill="#E40604"/>
<path d="M188.085 91.9998V89.2473H176.906V79.0422H180.087V86.7804H185.903V79.0422H189.084V86.7804H191.266V91.9998H188.085Z" fill="#E40604"/>
<path d="M172.73 85.4431H165.927V89.2473H162.746V79.0422H165.927V82.7166H172.73V79.0422H175.911V89.2473H172.73V85.4431Z" fill="#E40604"/>
<path d="M153.615 86.8713H161.626V89.2473H153.797H150.655H150.434V79.0422H150.564H153.797H161.626V81.4052H153.615V83.1191H161.133V85.1835H153.615V86.8713Z" fill="#E40604"/>
<path d="M145.096 81.4052V89.2473H141.915V81.4052H137.436V79.0422H149.432V81.4052H145.096Z" fill="#E40604"/>
<path d="M123.035 86.6119V81.6393C123.035 81.2238 123.082 80.8819 123.177 80.6136C123.273 80.3366 123.45 80.0812 123.71 79.8475C123.935 79.6225 124.186 79.4494 124.463 79.3282C124.74 79.207 125.086 79.1204 125.502 79.0685C125.926 79.0166 126.432 78.9863 127.021 78.9776C127.609 78.9603 128.518 78.9517 129.747 78.9517C130.976 78.9517 131.885 78.9603 132.474 78.9776C133.062 78.9863 133.56 79.0166 133.967 79.0685C134.382 79.1204 134.724 79.207 134.993 79.3282C135.269 79.4494 135.521 79.6225 135.746 79.8475C136.005 80.0812 136.183 80.3366 136.278 80.6136C136.373 80.8819 136.421 81.2238 136.421 81.6393V83.1194C136.421 84.461 136.421 85.6252 136.421 86.6119C136.421 87.0274 136.373 87.378 136.278 87.6636C136.183 87.9493 136.005 88.2089 135.746 88.4426C135.521 88.659 135.265 88.8278 134.98 88.949C134.703 89.0615 134.352 89.1481 133.928 89.2087C133.512 89.2606 132.997 89.2952 132.383 89.3125C131.768 89.3298 130.877 89.3385 129.708 89.3385C128.54 89.3385 127.652 89.3298 127.047 89.3125C126.441 89.2952 125.926 89.2606 125.502 89.2087C125.077 89.1481 124.731 89.0615 124.463 88.949C124.195 88.8278 123.944 88.659 123.71 88.4426C123.45 88.2089 123.273 87.9493 123.177 87.6636C123.082 87.378 123.035 87.0274 123.035 86.6119ZM125.904 82.0807V86.2095C125.904 86.4259 125.969 86.5773 126.099 86.6639C126.229 86.7418 126.475 86.7807 126.839 86.7807C127.315 86.7807 129.241 86.7807 132.617 86.7807C132.954 86.7807 133.201 86.7288 133.357 86.6249C133.521 86.5124 133.603 86.3739 133.603 86.2095V85.0409V82.0807C133.603 81.8383 133.534 81.6739 133.396 81.5873C133.266 81.5008 133.019 81.4575 132.655 81.4575C132.179 81.4575 130.241 81.4575 126.839 81.4575C126.501 81.4575 126.259 81.5137 126.112 81.6263C125.973 81.7388 125.904 81.8903 125.904 82.0807Z" fill="#E40604"/>
<path d="M118.488 81.5091H112.671V89.2473H109.49V79.0422H121.669V89.2473H118.488V81.5091Z" fill="#E40604"/>
<path d="M95.1021 86.6119V81.6393C95.1021 81.2238 95.1497 80.8819 95.2449 80.6136C95.3401 80.3366 95.5175 80.0812 95.7772 79.8475C96.0022 79.6225 96.2533 79.4494 96.5302 79.3282C96.8072 79.207 97.1535 79.1204 97.5689 79.0685C97.9931 79.0166 98.4994 78.9863 99.088 78.9776C99.6766 78.9603 100.585 78.9517 101.815 78.9517C103.044 78.9517 103.953 78.9603 104.541 78.9776C105.13 78.9863 105.627 79.0166 106.034 79.0685C106.45 79.1204 106.792 79.207 107.06 79.3282C107.337 79.4494 107.588 79.6225 107.813 79.8475C108.073 80.0812 108.25 80.3366 108.345 80.6136C108.44 80.8819 108.488 81.2238 108.488 81.6393V83.1194C108.488 84.461 108.488 85.6252 108.488 86.6119C108.488 87.0274 108.44 87.378 108.345 87.6636C108.25 87.9493 108.073 88.2089 107.813 88.4426C107.588 88.659 107.333 88.8278 107.047 88.949C106.77 89.0615 106.419 89.1481 105.995 89.2087C105.58 89.2606 105.065 89.2952 104.45 89.3125C103.836 89.3298 102.944 89.3385 101.776 89.3385C100.607 89.3385 99.7199 89.3298 99.114 89.3125C98.5081 89.2952 97.9931 89.2606 97.5689 89.2087C97.1448 89.1481 96.7986 89.0615 96.5302 88.949C96.2619 88.8278 96.0109 88.659 95.7772 88.4426C95.5175 88.2089 95.3401 87.9493 95.2449 87.6636C95.1497 87.378 95.1021 87.0274 95.1021 86.6119ZM97.9714 82.0807V86.2095C97.9714 86.4259 98.0363 86.5773 98.1662 86.6639C98.296 86.7418 98.5427 86.7807 98.9062 86.7807C99.3823 86.7807 101.308 86.7807 104.684 86.7807C105.021 86.7807 105.268 86.7288 105.424 86.6249C105.588 86.5124 105.671 86.3739 105.671 86.2095V85.0409V82.0807C105.671 81.8383 105.601 81.6739 105.463 81.5873C105.333 81.5008 105.086 81.4575 104.723 81.4575C104.247 81.4575 102.308 81.4575 98.9062 81.4575C98.5687 81.4575 98.3263 81.5137 98.1792 81.6263C98.0407 81.7388 97.9714 81.8903 97.9714 82.0807Z" fill="#E40604"/>
<path d="M89.7638 81.4052V89.2473H86.5828V81.4052H82.1035V79.0422H94.1003V81.4052H89.7638Z" fill="#E40604"/>
<path d="M68.3237 85.8067V79.0422H77.3213C77.806 79.0422 78.2345 79.0639 78.6067 79.1072C78.9789 79.1504 79.3338 79.2586 79.6713 79.4317C80.0089 79.5962 80.2816 79.8602 80.4893 80.2237C80.7057 80.5786 80.8139 81.0504 80.8139 81.6389C80.8139 82.1583 80.7403 82.5824 80.5932 82.9113C80.446 83.2316 80.2729 83.474 80.0738 83.6384C79.8748 83.7942 79.6887 83.8981 79.5155 83.95C79.3424 83.9933 79.2083 84.0149 79.1131 84.0149V84.0539C79.2948 84.0539 79.4939 84.0798 79.7103 84.1318C79.9267 84.1751 80.1474 84.2746 80.3725 84.4304C80.5975 84.5776 80.7879 84.8113 80.9437 85.1315C81.0995 85.4518 81.1774 85.8673 81.1774 86.3779C81.1774 87.0185 81.0822 87.5335 80.8918 87.923C80.71 88.3038 80.446 88.5895 80.0998 88.7799C79.7622 88.9703 79.3727 89.0958 78.9313 89.1564C78.4985 89.217 77.9618 89.2473 77.3213 89.2473H68.3237V85.8067ZM71.4138 85.1315V86.8713H77.1915C77.4425 86.8713 77.6459 86.8021 77.8017 86.6636C77.9575 86.5164 78.0354 86.2871 78.0354 85.9754C78.0354 85.7244 77.9575 85.521 77.8017 85.3652C77.6459 85.2094 77.4425 85.1315 77.1915 85.1315H71.4138ZM71.3619 81.3273V83.0671H76.8799C77.1136 83.0671 77.3127 82.9892 77.4771 82.8334C77.6416 82.669 77.7238 82.4483 77.7238 82.1713C77.7238 81.9289 77.6459 81.7298 77.4901 81.574C77.3343 81.4096 77.1439 81.3273 76.9188 81.3273H71.3619Z" fill="#E40604"/>
<path d="M63.0648 87.5075H56.7938L55.846 89.2473H52.3145L57.9104 79.0422H61.9872L67.5312 89.2473H63.9996L63.0648 87.5075ZM59.9228 81.6389L57.9493 85.3133H61.8963L59.9228 81.6389Z" fill="#E40604"/>
<path d="M134.177 14.0851C134.197 13.188 135.354 12.841 135.864 13.5788C136.093 13.9087 136.508 14.054 136.892 13.9386C137.752 13.6807 138.439 14.6734 137.895 15.3872C137.652 15.7064 137.642 16.1459 137.871 16.4759C138.381 17.2136 137.65 18.174 136.803 17.8775C136.424 17.7449 136.003 17.8712 135.76 18.1904C135.216 18.9043 134.077 18.5053 134.097 17.6082C134.106 17.207 133.856 16.8455 133.477 16.7129C132.63 16.4164 132.657 15.2093 133.517 14.9514C133.901 14.8361 134.168 14.4863 134.177 14.0851Z" fill="#E40604"/>
<path d="M206.67 14.0851C206.65 13.188 205.493 12.841 204.982 13.5788C204.754 13.9087 204.339 14.054 203.955 13.9386C203.095 13.6807 202.408 14.6734 202.951 15.3872C203.195 15.7064 203.205 16.1459 202.976 16.4759C202.465 17.2136 203.197 18.174 204.044 17.8775C204.423 17.7449 204.844 17.8712 205.087 18.1904C205.631 18.9043 206.77 18.5053 206.75 17.6082C206.741 17.207 206.991 16.8455 207.37 16.7129C208.217 16.4164 208.189 15.2093 207.33 14.9514C206.945 14.8361 206.679 14.4863 206.67 14.0851Z" fill="#E40604"/>
<path d="M150.086 10.9446C150.193 12.0977 151.713 12.4405 152.305 11.4448C152.569 10.9995 153.09 10.7752 153.596 10.8891C154.725 11.1439 155.521 9.80412 154.757 8.93397C154.415 8.54482 154.363 7.97986 154.627 7.53456C155.219 6.53884 154.19 5.36805 153.127 5.82598C152.651 6.03077 152.097 5.90596 151.756 5.51681C150.991 4.64665 149.56 5.2628 149.667 6.41598C149.715 6.93169 149.425 7.41951 148.949 7.62431C147.886 8.08224 148.029 9.63383 149.159 9.8886C149.664 10.0025 150.039 10.4288 150.086 10.9446Z" fill="#E40604"/>
<path d="M191.562 11.5962C191.455 12.7493 189.935 13.0921 189.343 12.0964C189.079 11.6511 188.558 11.4268 188.052 11.5407C186.923 11.7955 186.127 10.4557 186.891 9.58558C187.233 9.19643 187.285 8.63147 187.021 8.18617C186.429 7.19045 187.458 6.01966 188.521 6.47759C188.997 6.68239 189.551 6.55757 189.892 6.16842C190.657 5.29827 192.088 5.91441 191.981 7.06759C191.933 7.5833 192.223 8.07113 192.699 8.27592C193.762 8.73385 193.619 10.2854 192.489 10.5402C191.984 10.6541 191.609 11.0805 191.562 11.5962Z" fill="#E40604"/>
<path d="M169.472 1.11866C169.892 -0.175758 171.723 -0.177311 172.144 1.1164C172.333 1.69496 172.872 2.08633 173.481 2.08582C174.841 2.08466 175.409 3.82534 174.308 4.62605C173.817 4.98414 173.611 5.6183 173.8 6.19686C174.221 7.49057 172.741 8.56792 171.639 7.76908C171.147 7.41183 170.48 7.41239 169.988 7.77048C168.888 8.57119 167.406 7.49635 167.825 6.20193C168.013 5.62305 167.807 4.98923 167.314 4.63198C166.212 3.83313 166.777 2.0915 168.137 2.09035C168.746 2.08983 169.285 1.69755 169.472 1.11866Z" fill="#E40604"/>
<mask id="path-22-inside-1_133_13905" fill="white">
<path d="M0.71582 81.2859H45.5435V83.3872H4.5682L0.71582 81.2859Z"/>
</mask>
<path d="M45.5435 81.2859H55.5435V71.2859H45.5435V81.2859ZM0.71582 81.2859V71.2859L-4.0727 90.0648L0.71582 81.2859ZM4.5682 83.3872L-0.220319 92.1661L2.01826 93.3872H4.5682V83.3872ZM45.5435 83.3872V93.3872H55.5435V83.3872H45.5435ZM45.5435 71.2859H0.71582V91.2859H45.5435V71.2859ZM-4.0727 90.0648L-0.220319 92.1661L9.35672 74.6082L5.50434 72.5069L-4.0727 90.0648ZM4.5682 93.3872H45.5435V73.3872H4.5682V93.3872ZM55.5435 83.3872V81.2859H35.5435V83.3872H55.5435Z" fill="url(#paint0_linear_133_13905)" mask="url(#path-22-inside-1_133_13905)"/>
<mask id="path-24-inside-2_133_13905" fill="white">
<path d="M14.7246 85.021H45.5437V87.1223H17.3731L14.7246 85.021Z"/>
</mask>
<path d="M45.5437 85.021H55.5437V75.021H45.5437V85.021ZM14.7246 85.021V75.021H-13.9688L8.50929 92.8549L14.7246 85.021ZM17.3731 87.1223L11.1578 94.9562L13.888 97.1223H17.3731V87.1223ZM45.5437 87.1223V97.1223H55.5437V87.1223H45.5437ZM45.5437 75.021H14.7246V95.021H45.5437V75.021ZM8.50929 92.8549L11.1578 94.9562L23.5884 79.2884L20.9399 77.1871L8.50929 92.8549ZM17.3731 97.1223H45.5437V77.1223H17.3731V97.1223ZM55.5437 87.1223V85.021H35.5437V87.1223H55.5437Z" fill="url(#paint1_linear_133_13905)" mask="url(#path-24-inside-2_133_13905)"/>
<mask id="path-26-inside-3_133_13905" fill="white">
<path d="M340.893 82.4536H296.065V84.5549H337.04L340.893 82.4536Z"/>
</mask>
<path d="M296.065 82.4536H286.065V72.4536H296.065V82.4536ZM340.893 82.4536V72.4536L345.681 91.2326L340.893 82.4536ZM337.04 84.5549L341.829 93.3339L339.59 94.5549H337.04V84.5549ZM296.065 84.5549V94.5549H286.065V84.5549H296.065ZM296.065 72.4536H340.893V92.4536H296.065V72.4536ZM345.681 91.2326L341.829 93.3339L332.252 75.776L336.104 73.6747L345.681 91.2326ZM337.04 94.5549H296.065V74.5549H337.04V94.5549ZM286.065 84.5549V82.4536H306.065V84.5549H286.065Z" fill="url(#paint2_linear_133_13905)" mask="url(#path-26-inside-3_133_13905)"/>
<mask id="path-28-inside-4_133_13905" fill="white">
<path d="M326.884 86.189H296.065V88.2903H324.235L326.884 86.189Z"/>
</mask>
<path d="M296.065 86.189H286.065V76.189H296.065V86.189ZM326.884 86.189V76.189H355.577L333.099 94.0229L326.884 86.189ZM324.235 88.2903L330.451 96.1242L327.72 98.2903H324.235V88.2903ZM296.065 88.2903V98.2903H286.065V88.2903H296.065ZM296.065 76.189H326.884V96.189H296.065V76.189ZM333.099 94.0229L330.451 96.1242L318.02 80.4564L320.668 78.3551L333.099 94.0229ZM324.235 98.2903H296.065V78.2903H324.235V98.2903ZM286.065 88.2903V86.189H306.065V88.2903H286.065Z" fill="url(#paint3_linear_133_13905)" mask="url(#path-28-inside-4_133_13905)"/>
<path d="M192.108 39.0474L190.298 48.2797" stroke="url(#paint4_linear_133_13905)" stroke-width="2"/>
<mask id="path-31-inside-5_133_13905" fill="white">
<path d="M182.694 57.3318C184.263 56.7887 187.618 55.6663 188.487 55.5215C188.97 56.1249 189.646 57.73 188.487 59.323C187.329 60.9161 184.143 58.6593 182.694 57.3318Z"/>
</mask>
<path d="M188.487 55.5215L211.913 36.7806L200.918 23.036L183.555 25.9297L188.487 55.5215ZM182.694 57.3318L172.881 28.9822L125.328 45.4429L162.423 79.4464L182.694 57.3318ZM188.487 59.323L212.749 76.9682L212.749 76.9682L188.487 59.323ZM183.555 25.9297C180.458 26.4459 176.959 27.6249 176.695 27.7094C175.277 28.164 173.82 28.6571 172.881 28.9822L192.508 85.6813C192.804 85.5789 193.213 85.439 193.67 85.286C194.129 85.1323 194.594 84.979 195.012 84.8452C195.218 84.7789 195.397 84.7228 195.543 84.6774C195.695 84.6306 195.781 84.6051 195.81 84.5967C195.858 84.5828 195.737 84.6188 195.501 84.6793C195.378 84.7109 195.157 84.7663 194.864 84.832C194.713 84.8658 194.52 84.9076 194.292 84.9532C194.068 84.9982 193.772 85.0546 193.419 85.1133L183.555 25.9297ZM162.423 79.4464C164.366 81.2278 168.031 84.2515 172.869 86.5407C175.119 87.605 180.158 89.7527 186.783 89.8662C194.743 90.0026 205.475 86.9704 212.749 76.9682L164.225 41.6779C170.92 32.4722 180.819 29.7553 187.811 29.8751C193.468 29.972 197.402 31.7712 198.529 32.3045C201.123 33.5317 202.471 34.7632 202.966 35.2171L162.423 79.4464ZM212.749 76.9682C224.654 60.5988 217.448 43.6986 211.913 36.7806L165.061 74.2623C162.122 70.5887 159.99 66.0206 159.334 60.7722C158.566 54.625 159.901 47.6231 164.225 41.6779L212.749 76.9682Z" fill="url(#paint5_linear_133_13905)" mask="url(#path-31-inside-5_133_13905)"/>
<path d="M192.108 56.969C192.651 58.9603 193.049 64.3549 190.298 70.0029" stroke="url(#paint6_linear_133_13905)" stroke-width="2"/>
<path d="M140.334 45.5649C140.263 45.5649 140.092 45.5899 139.85 45.6367L140.334 45.5649ZM140.334 45.5649C140.576 47.1942 140.914 50.5251 140.334 50.8147V45.5649Z" stroke="url(#paint7_linear_133_13905)" stroke-width="30"/>
<mask id="path-35-inside-6_133_13905" fill="white">
<path d="M120.784 64.9347C107.17 46.2527 91.9399 57.1505 86.0264 64.9347L87.4746 65.2968C102.97 52.4077 114.81 59.6849 118.792 64.9347H120.784Z"/>
</mask>
<path d="M86.0264 64.9347L62.1379 46.7869L34.6232 83.0052L78.749 94.0386L86.0264 64.9347ZM120.784 64.9347V94.9347H179.764L145.029 47.2672L120.784 64.9347ZM118.792 64.9347L94.8915 83.0663L103.895 94.9347H118.792V64.9347ZM87.4746 65.2968L80.1973 94.4007L94.9599 98.0921L106.659 88.3611L87.4746 65.2968ZM109.915 83.0825C109.806 83.2254 109.861 83.1551 109.851 83.1621C109.801 83.1996 109.575 83.3618 109.145 83.571C108.712 83.7814 107.963 84.0914 106.908 84.3214C104.505 84.8453 101.412 84.7377 98.5432 83.4983C95.9326 82.3705 95.4875 81.161 96.5377 82.6022L145.029 47.2672C139.273 39.3674 131.819 32.5144 122.339 28.4188C112.601 24.2117 102.779 23.8122 94.1273 25.6984C78.3385 29.1405 67.503 39.7247 62.1379 46.7869L109.915 83.0825ZM120.784 34.9347H118.792V94.9347H120.784V34.9347ZM142.693 46.803C136.768 38.9925 126.338 30.9572 112.197 28.6915C96.7663 26.219 81.4425 31.2927 68.2903 42.2325L106.659 88.3611C108.022 87.2273 108.267 87.3943 107.301 87.6963C106.244 88.0271 104.611 88.2413 102.704 87.9358C100.91 87.6482 99.417 86.9914 98.2698 86.26C97.222 85.592 96.067 84.6158 94.8915 83.0663L142.693 46.803ZM94.7519 36.1928L93.3037 35.8307L78.749 94.0386L80.1973 94.4007L94.7519 36.1928Z" fill="url(#paint8_linear_133_13905)" mask="url(#path-35-inside-6_133_13905)"/>
<mask id="path-37-inside-7_133_13905" fill="white">
<path d="M262.347 61.8541C248.733 43.1721 233.503 54.0699 227.589 61.8541L229.038 62.2162C244.533 49.3271 256.373 56.6043 260.355 61.8541H262.347Z"/>
</mask>
<path d="M227.589 61.8541L203.701 43.7063L176.186 79.9246L220.312 90.9581L227.589 61.8541ZM262.347 61.8541V91.8541H321.327L286.592 44.1866L262.347 61.8541ZM260.355 61.8541L236.455 79.9857L245.458 91.8541H260.355V61.8541ZM229.038 62.2162L221.76 91.3202L236.523 95.0115L248.222 85.2805L229.038 62.2162ZM251.478 80.0019C251.369 80.1448 251.424 80.0745 251.414 80.0815C251.364 80.119 251.138 80.2813 250.708 80.4904C250.275 80.7008 249.526 81.0108 248.471 81.2408C246.068 81.7647 242.975 81.6571 240.106 80.4177C237.496 79.2899 237.051 78.0804 238.101 79.5216L286.592 44.1866C280.836 36.2868 273.382 29.4338 263.902 25.3383C254.164 21.1312 244.342 20.7316 235.69 22.6178C219.902 26.0599 209.066 36.6441 203.701 43.7063L251.478 80.0019ZM262.347 31.8541H260.355V91.8541H262.347V31.8541ZM284.256 43.7225C278.331 35.9119 267.901 27.8767 253.76 25.6109C238.329 23.1384 223.006 28.2122 209.853 39.1519L248.222 85.2805C249.585 84.1467 249.83 84.3137 248.864 84.6158C247.807 84.9465 246.174 85.1607 244.267 84.8552C242.473 84.5676 240.98 83.9108 239.833 83.1794C238.785 82.5114 237.63 81.5352 236.455 79.9857L284.256 43.7225ZM236.315 33.1123L234.867 32.7501L220.312 90.9581L221.76 91.3202L236.315 33.1123Z" fill="url(#paint9_linear_133_13905)" mask="url(#path-37-inside-7_133_13905)"/>
<mask id="path-39-inside-8_133_13905" fill="white">
<path d="M124.766 50.272C93.4845 43.1758 72.1475 56.2459 65.3892 63.668H70.0959C84.9401 53.3497 97.974 48.8048 124.766 54.6164C151.558 60.428 205.866 52.263 230.305 47.1943C249.855 43.1393 266.57 49.2459 272.484 52.8061L271.941 47.1943C265.243 40.3153 239.537 42.3066 233.744 42.6686C229.11 42.9583 223.969 40.7376 221.977 39.5911C180.124 20.3296 138.403 37.3585 122.775 48.2806H128.568C167.38 26.5573 206.168 36.8155 220.71 44.66C201.763 49.4875 156.047 57.3683 124.766 50.272Z"/>
</mask>
<path d="M65.3892 63.668L-8.55043 -3.65909L-160.913 163.668H65.3892V63.668ZM124.766 50.272L102.643 147.794H102.643L124.766 50.272ZM220.71 44.66L245.399 141.564L493.709 78.2999L268.185 -43.3519L220.71 44.66ZM128.568 48.2806V148.281H154.649L177.408 135.542L128.568 48.2806ZM122.775 48.2806L65.4916 -33.6869L-194.889 148.281H122.775V48.2806ZM221.977 39.5911L271.874 -47.071L267.924 -49.3451L263.784 -51.2505L221.977 39.5911ZM233.744 42.6686L227.506 -57.1366H227.506L233.744 42.6686ZM271.941 47.1943L371.476 37.5617L368.092 2.59927L343.588 -22.5673L271.941 47.1943ZM272.484 52.8061L220.906 138.478L391.162 240.979L372.019 43.1735L272.484 52.8061ZM230.305 47.1943L250.613 145.11H250.613L230.305 47.1943ZM124.766 54.6164L145.965 -43.1109L145.965 -43.1109L124.766 54.6164ZM70.0959 63.668V163.668H101.437L127.172 145.78L70.0959 63.668ZM139.329 130.995C133.887 136.972 129.114 140.367 126.269 142.152C123.014 144.194 119.927 145.601 117.039 146.548C110.699 148.627 105.442 148.429 102.643 147.794L146.889 -47.2501C78.6533 -62.7295 21.1634 -36.2912 -8.55043 -3.65909L139.329 130.995ZM102.643 147.794C133.605 154.818 165.22 153.547 186.845 151.487C209.903 149.291 231.152 145.194 245.399 141.564L196.021 -52.2443C191.321 -51.0468 180.238 -48.789 167.881 -47.6121C161.901 -47.0424 156.613 -46.8239 152.334 -46.9114C147.792 -47.0043 146.185 -47.4099 146.889 -47.2501L102.643 147.794ZM268.185 -43.3519C231.761 -62.9999 155.743 -81.5274 79.727 -38.9811L177.408 135.542C177.681 135.389 177.833 135.331 177.875 135.315C177.923 135.297 177.95 135.29 177.976 135.285C178.04 135.272 178.271 135.234 178.677 135.254C179.145 135.278 179.395 135.358 179.174 135.297C179.032 135.258 178.562 135.123 177.743 134.803C176.994 134.51 175.443 133.863 173.235 132.672L268.185 -43.3519ZM128.568 -51.7194H122.775V148.281H128.568V-51.7194ZM180.058 130.248C179.659 130.527 179.311 130.76 179.02 130.95C178.728 131.141 178.479 131.298 178.274 131.423C178.07 131.549 177.9 131.649 177.768 131.725C177.635 131.802 177.532 131.859 177.459 131.898C177.316 131.976 177.265 131.999 177.304 131.98C177.341 131.962 177.442 131.915 177.601 131.849C177.759 131.782 177.958 131.704 178.19 131.62C178.423 131.536 178.675 131.452 178.942 131.372C179.208 131.291 179.477 131.218 179.742 131.153C180.008 131.088 180.26 131.035 180.495 130.992C180.73 130.949 180.938 130.919 181.117 130.897C181.296 130.876 181.438 130.865 181.544 130.859C181.756 130.848 181.796 130.861 181.682 130.85C181.624 130.845 181.533 130.834 181.412 130.813C181.29 130.792 181.149 130.762 180.993 130.721C180.837 130.68 180.682 130.632 180.533 130.579C180.385 130.526 180.262 130.475 180.171 130.433L263.784 -51.2505C177.965 -90.7455 97.8454 -56.2973 65.4916 -33.6869L180.058 130.248ZM172.081 126.253C179.494 130.522 187.992 134.281 196.968 137.093C205.463 139.755 220.925 143.665 239.982 142.474L227.506 -57.1366C241.929 -58.0381 252.503 -55.0938 256.771 -53.7564C261.52 -52.2683 266.452 -50.1928 271.874 -47.071L172.081 126.253ZM239.982 142.474C244.168 142.212 246.643 142.062 248.54 142.137C249.606 142.18 246.897 142.195 241.997 141.092C239.423 140.513 234.319 139.203 227.952 136.369C221.916 133.683 211.052 128.005 200.294 116.956L343.588 -22.5673C320.908 -45.8606 293.992 -52.2079 285.926 -54.0238C274.141 -56.6771 263.388 -57.4309 256.466 -57.7054C242.387 -58.2638 229.113 -57.2371 227.506 -57.1366L239.982 142.474ZM172.406 56.8269L172.949 62.4387L372.019 43.1735L371.476 37.5617L172.406 56.8269ZM324.062 -32.8659C300.1 -47.292 257.943 -60.6663 209.996 -50.7218L250.613 145.11C245.067 146.261 240.393 145.898 236.993 145.222C235.237 144.872 233.324 144.345 231.164 143.538C229.356 142.863 225.735 141.385 220.906 138.478L324.062 -32.8659ZM209.996 -50.7218C200.877 -48.8304 184.745 -46.1059 168.713 -44.5425C160.77 -43.768 154.001 -43.3937 148.826 -43.3783C142.802 -43.3605 142.538 -43.8542 145.965 -43.1109L103.567 152.344C133.597 158.858 167.624 156.512 188.123 154.513C212.052 152.18 235.294 148.288 250.613 145.11L209.996 -50.7218ZM145.965 -43.1109C124.357 -47.7978 99.6551 -50.2495 73.2612 -44.949C46.1249 -39.4994 26.2398 -27.6329 13.0198 -18.4436L127.172 145.78C128.796 144.651 122.85 149.086 112.64 151.136C103.172 153.037 98.3826 151.219 103.567 152.344L145.965 -43.1109ZM70.0959 -36.332H65.3892V163.668H70.0959V-36.332Z" fill="url(#paint10_linear_133_13905)" mask="url(#path-39-inside-8_133_13905)"/>
<circle cx="224.331" cy="53.7111" r="2.25848" stroke="url(#paint11_linear_133_13905)" stroke-width="2"/>
<defs>
<linearGradient id="paint0_linear_133_13905" x1="0.85342" y1="81.2859" x2="55.6186" y2="81.2859" gradientUnits="userSpaceOnUse">
<stop offset="0.410416" stop-color="#FCBC40"/>
<stop offset="0.947917" stop-color="#FCBC40" stop-opacity="0"/>
</linearGradient>
<linearGradient id="paint1_linear_133_13905" x1="14.8192" y1="85.021" x2="52.4703" y2="85.021" gradientUnits="userSpaceOnUse">
<stop offset="0.410416" stop-color="#FCBC40"/>
<stop offset="0.947917" stop-color="#FCBC40" stop-opacity="0"/>
</linearGradient>
<linearGradient id="paint2_linear_133_13905" x1="340.755" y1="82.4536" x2="285.99" y2="82.4536" gradientUnits="userSpaceOnUse">
<stop offset="0.316666" stop-color="#FCBC40"/>
<stop offset="0.947917" stop-color="#FCBC40" stop-opacity="0"/>
</linearGradient>
<linearGradient id="paint3_linear_133_13905" x1="326.789" y1="86.189" x2="289.138" y2="86.189" gradientUnits="userSpaceOnUse">
<stop offset="0.316666" stop-color="#FCBC40"/>
<stop offset="0.947917" stop-color="#FCBC40" stop-opacity="0"/>
</linearGradient>
<linearGradient id="paint4_linear_133_13905" x1="191.203" y1="39.0474" x2="191.203" y2="48.2797" gradientUnits="userSpaceOnUse">
<stop offset="0.483333" stop-color="#FCBC40"/>
<stop offset="0.947917" stop-color="#FCBC40" stop-opacity="0"/>
</linearGradient>
<linearGradient id="paint5_linear_133_13905" x1="185.911" y1="55.5215" x2="185.911" y2="59.871" gradientUnits="userSpaceOnUse">
<stop offset="0.483333" stop-color="#FCBC40"/>
<stop offset="0.947917" stop-color="#FCBC40" stop-opacity="0"/>
</linearGradient>
<linearGradient id="paint6_linear_133_13905" x1="191.399" y1="56.969" x2="191.399" y2="70.0029" gradientUnits="userSpaceOnUse">
<stop offset="0.483333" stop-color="#FCBC40"/>
<stop offset="0.947917" stop-color="#FCBC40" stop-opacity="0"/>
</linearGradient>
<linearGradient id="paint7_linear_133_13905" x1="137.535" y1="45.5649" x2="137.535" y2="50.8772" gradientUnits="userSpaceOnUse">
<stop offset="0.483333" stop-color="#FCBC40"/>
<stop offset="0.947917" stop-color="#FCBC40" stop-opacity="0"/>
</linearGradient>
<linearGradient id="paint8_linear_133_13905" x1="103.405" y1="54.6194" x2="103.405" y2="65.2968" gradientUnits="userSpaceOnUse">
<stop offset="0.483333" stop-color="#FCBC40"/>
<stop offset="0.947917" stop-color="#FCBC40" stop-opacity="0"/>
</linearGradient>
<linearGradient id="paint9_linear_133_13905" x1="244.968" y1="51.5388" x2="244.968" y2="62.2162" gradientUnits="userSpaceOnUse">
<stop offset="0.483333" stop-color="#FCBC40"/>
<stop offset="0.947917" stop-color="#FCBC40" stop-opacity="0"/>
</linearGradient>
<linearGradient id="paint10_linear_133_13905" x1="168.936" y1="30.8545" x2="168.936" y2="63.668" gradientUnits="userSpaceOnUse">
<stop offset="0.483333" stop-color="#FCBC40"/>
<stop offset="0.947917" stop-color="#FCBC40" stop-opacity="0"/>
</linearGradient>
<linearGradient id="paint11_linear_133_13905" x1="224.331" y1="50.4526" x2="224.331" y2="56.9696" gradientUnits="userSpaceOnUse">
<stop offset="0.483333" stop-color="#FCBC40"/>
<stop offset="0.947917" stop-color="#FCBC40" stop-opacity="0"/>
</linearGradient>
</defs>
</svg>
